<?xml version="1.0" encoding="UTF-8" standalone="no"?>
<!DOCTYPE svg PUBLIC "-//W3C//DTD SVG 20010904//EN" "http://www.w3.org/TR/2001/REC-SVG-20010904/DTD/svg10.dtd">
<svg version="1.0" xmlns="http://www.w3.org/2000/svg" width="782.000000pt" height="305.000000pt" viewBox="0 0 782.000000 305.000000" preserveAspectRatio="xMidYMid meet">

<g transform="translate(0.000000,305.000000) scale(0.100000,-0.100000)" fill="#000000" stroke="none">
<path d="M7672 1498 l-2 -1348 -3742 -1 c-2349 0 -3734 -4 -3720 -10 35 -13 7448 -7 7462 7 7 7 9 423 7 1355 l-2 1344 -3 -1347z"/>
<path d="M1250 1988 c-1 -2 -42 -209 -93 -461 -51 -252 -91 -460 -88 -462 2 -3 160 -5 351 -5 l347 0 22 108 c11 59 21 113 21 120 0 9 -47 12 -204 12 l-203 0 11 58 12 57 207 3 c114 1 207 4 207 6 0 2 9 48 20 101 11 53 20 99 20 101 0 2 -93 4 -206 4 l-206 0 5 23 c3 12 9 39 12 60 l7 37 324 0 c178 0 324 -1 324 -2 0 -2 -31 -155 -69 -341 -50 -244 -66 -340 -57 -343 7 -3 73 -3 147 -2 l134 3 69 343 69 342 117 0 117 0 -63 -317 c-35 -175 -66 -330 -70 -345 l-6 -28 146 0 c129 0 145 2 150 18 3 9 19 90 37 180 l32 162 98 0 c55 0 99 -4 99 -8 0 -5 -15 -84 -34 -176 -24 -121 -30 -169 -22 -172 7 -3 72 -3 146 -2 l135 3 87 430 c47 237 89 445 93 463 l6 33 -148 -3 -147 -3 -35 -177 -35 -178 -98 0 c-87 0 -98 2 -98 18 1 9 15 88 33 175 18 87 31 160 28 162 -4 5 -1751 7 -1751 3z"/>
<path d="M4375 1953 c-3 -21 -9 -48 -12 -60 -5 -22 -2 -23 45 -23 50 0 50 0 57 38 3 20 9 47 12 60 5 21 2 22 -45 22 -50 0 -50 0 -57 -37z"/>
<path d="M4625 1978 c-2 -7 -8 -34 -13 -60 l-10 -48 48 0 c53 0 55 2 65 74 l7 46 -46 0 c-29 0 -48 -5 -51 -12z"/>
<path d="M5517 1983 c-3 -5 -8 -32 -12 -60 l-7 -53 45 0 c25 0 48 3 50 8 3 4 8 31 12 60 l7 52 -45 0 c-25 0 -48 -3 -50 -7z"/>
<path d="M6375 1978 c-12 -37 -181 -908 -177 -913 3 -3 24 -5 48 -5 35 0 43 4 47 23 3 12 22 108 43 212 20 105 45 206 55 227 61 121 239 130 263 13 4 -18 -11 -115 -37 -247 -24 -120 -42 -220 -39 -223 3 -3 24 -5 48 -5 35 0 43 4 47 23 36 147 87 445 81 475 -8 50 -47 108 -86 129 -51 27 -154 22 -212 -10 -25 -14 -46 -22 -46 -18 0 4 14 75 30 156 17 81 30 154 30 162 0 17 -89 18 -95 1z"/>
<path d="M5135 1701 c-36 -9 -74 -28 -98 -49 -16 -14 -17 -13 -11 17 l7 32 -49 -3 -49 -3 -57 -285 c-31 -157 -59 -300 -63 -317 l-6 -33 49 0 49 0 43 215 c35 175 48 224 72 261 48 77 155 107 208 59 21 -19 41 -12 78 27 21 23 21 25 5 40 -42 36 -121 54 -178 39z"/>
<path d="M5903 1700 c-23 -5 -56 -16 -73 -25 -145 -75 -236 -350 -166 -502 35 -75 87 -107 183 -112 84 -4 139 12 197 58 l35 28 -27 33 -28 32 -47 -30 c-59 -37 -103 -46 -153 -30 -80 27 -105 123 -68 263 34 133 102 199 205 200 52 0 61 -3 92 -33 l34 -33 32 26 c37 32 39 45 9 72 -54 49 -143 70 -225 53z"/>
<path d="M3680 1686 c0 -7 -3 -27 -6 -44 l-6 -31 152 -3 152 -3 -199 -223 c-183 -207 -221 -258 -222 -304 -1 -17 16 -18 223 -18 224 0 224 0 230 23 3 12 6 32 6 44 0 22 -2 23 -159 25 l-160 3 151 170 c82 94 174 197 204 231 36 40 56 74 62 102 l10 42 -219 0 c-179 0 -219 -3 -219 -14z"/>
<path d="M4255 1688 c-12 -38 -85 -429 -85 -458 0 -45 37 -118 73 -144 19 -14 48 -22 96 -24 66 -4 87 2 174 46 4 2 7 -8 7 -22 0 -24 3 -26 45 -26 25 0 45 1 45 3 0 1 27 137 60 302 33 165 60 308 60 318 0 15 -7 18 -47 15 l-47 -3 -41 -206 c-47 -236 -55 -258 -101 -299 -66 -57 -154 -61 -199 -8 -33 39 -32 58 15 293 22 109 40 205 40 212 0 17 -89 18 -95 1z"/>
<path d="M5451 1648 c-89 -429 -117 -578 -113 -583 5 -5 92 -7 92 -2 0 2 27 138 60 302 33 164 60 307 60 317 0 15 -8 18 -44 18 l-45 0 -10 -52z"/>
</g>
</svg>