<?xml version="1.0" encoding="utf-8"?>
<!-- Generator: Adobe Illustrator 22.1.0, SVG Export Plug-In . SVG Version: 6.00 Build 0)  -->
<svg version="1.1" id="Layer_1" xmlns="http://www.w3.org/2000/svg" xmlns:xlink="http://www.w3.org/1999/xlink" x="0px" y="0px"
	 viewBox="0 0 512 512" style="enable-background:new 0 0 512 512;" xml:space="preserve">
<style type="text/css">
	.st0{fill:#A39264;}
	.st1{fill:none;}
	.st2{fill:#726646;}
</style>
<g>
	<g>
		<path class="st0" d="M256,4c34,0,67,6.7,98.1,19.8c30,12.7,57,30.9,80.1,54c23.1,23.1,41.3,50.1,54,80.1
			C501.3,189,508,222,508,256s-6.7,67-19.8,98.1c-12.7,30-30.9,57-54,80.1c-23.1,23.1-50.1,41.3-80.1,54C323,501.3,290,508,256,508
			s-67-6.7-98.1-19.8c-30-12.7-57-30.9-80.1-54c-23.1-23.1-41.3-50.1-54-80.1C10.7,323,4,290,4,256s6.7-67,19.8-98.1
			c12.7-30,30.9-57,54-80.1c23.1-23.1,50.1-41.3,80.1-54C189,10.7,222,4,256,4 M256,0C114.6,0,0,114.6,0,256s114.6,256,256,256
			s256-114.6,256-256S397.4,0,256,0L256,0z"/>
	</g>
</g>
<g>
	<rect x="160" y="160" class="st1" width="192" height="192"/>
	<path class="st2" d="M256,172c-53,0-96,35-96,78c0,18.6,8,35.6,21.4,49c-4.6,18.9-20.3,35.7-20.5,35.9c-0.8,0.8-1,2.2-0.6,3.3
		s1.5,1.8,2.7,1.8c24.8,0,43.5-11.9,52.7-19.3c12.2,4.6,25.9,7.3,40.3,7.3c53,0,96-34.9,96-78S309,172,256,172z"/>
</g>
</svg>
