<?xml version="1.0" encoding="utf-8"?>
<!-- Generator: Adobe Illustrator 22.1.0, SVG Export Plug-In . SVG Version: 6.00 Build 0)  -->
<svg version="1.1" id="Layer_1" xmlns="http://www.w3.org/2000/svg" xmlns:xlink="http://www.w3.org/1999/xlink" x="0px" y="0px"
	 viewBox="0 0 512 512" style="enable-background:new 0 0 512 512;" xml:space="preserve">
<style type="text/css">
	.st0{fill:#EAE4D4;}
	.st1{fill:none;}
	.st2{fill:#6F7A9D;}
</style>
<g>
	<circle class="st0" cx="256" cy="256" r="256"/>
</g>
<rect x="128" y="128" class="st1" width="256" height="256"/>
<path class="st2" d="M196.3,197.4c-10.2,2.9-18.3,10.6-21.7,20.7L128,358l7.3,7.3l75.1-75.1c-1.5-3.1-2.4-6.6-2.4-10.3
	c0-13.3,10.7-24,24-24c13.3,0,24,10.7,24,24s-10.7,24-24,24c-3.7,0-7.2-0.9-10.3-2.4l-75.1,75.1l7.3,7.3l139.9-46.6
	c10.1-3.4,17.8-11.5,20.7-21.7L336,240l-64-64L196.3,197.4L196.3,197.4z M377,165.1L346.9,135c-9.4-9.4-24.6-9.4-34,0l-28.3,28.3
	l64,64L377,199C386.3,189.7,386.3,174.5,377,165.1z"/>
</svg>
