<?xml version="1.0" encoding="utf-8"?>
<!-- Generator: Adobe Illustrator 22.1.0, SVG Export Plug-In . SVG Version: 6.00 Build 0)  -->
<svg version="1.1" id="Layer_1" xmlns="http://www.w3.org/2000/svg" xmlns:xlink="http://www.w3.org/1999/xlink" x="0px" y="0px"
	 viewBox="0 0 512 512" style="enable-background:new 0 0 512 512;" xml:space="preserve">
<style type="text/css">
	.st0{fill:#EDE9E0;}
	.st1{fill:none;}
	.st2{fill:#A39264;}
</style>
<g>
	<g>
		<circle class="st0" cx="256" cy="256" r="256"/>
	</g>
</g>
<rect x="128" y="128" class="st1" width="256" height="256"/>
<path class="st2" d="M211.2,212c-7.7,2.2-13.7,8-16.3,15.5l-35,104.9l5.5,5.5l56.3-56.3c-1.1-2.3-1.8-5-1.8-7.7c0-10,8-18,18-18
	s18,8,18,18s-8,18-18,18c-2.8,0-5.4-0.7-7.7-1.8l-56.3,56.3l5.5,5.5l104.9-35c7.6-2.6,13.4-8.6,15.5-16.3L316,244l-48-48L211.2,212
	L211.2,212z M346.8,187.8l-22.6-22.6c-7.1-7.1-18.5-7.1-25.5,0l-21.2,21.2l48,48l21.3-21.2C353.7,206.2,353.7,194.8,346.8,187.8z"/>
</svg>
