<?xml version="1.0" encoding="utf-8"?>
<!-- Generator: Adobe Illustrator 22.1.0, SVG Export Plug-In . SVG Version: 6.00 Build 0)  -->
<svg version="1.1" id="Layer_1" xmlns="http://www.w3.org/2000/svg" xmlns:xlink="http://www.w3.org/1999/xlink" x="0px" y="0px"
	 viewBox="0 0 512 512" style="enable-background:new 0 0 512 512;" xml:space="preserve">
<style type="text/css">
	.st0{fill:#EAE4D4;}
	.st1{fill:none;}
	.st2{fill:#6F7A9D;}
</style>
<g>
	<circle class="st0" cx="256" cy="256" r="256"/>
</g>
<rect x="128" y="128" class="st1" width="256" height="256"/>
<path class="st2" d="M256,144c-70.7,0-128,46.6-128,104c0,24.8,10.7,47.5,28.5,65.4c-6.2,25.2-27.1,47.6-27.4,47.9
	c-1.1,1.1-1.4,2.9-0.8,4.4c0.6,1.5,2,2.4,3.6,2.4c33.1,0,58-15.9,70.3-25.7c16.3,6.2,34.5,9.7,53.7,9.7c70.7,0,128-46.5,128-104
	S326.7,144,256,144z"/>
</svg>
