<?xml version="1.0" encoding="utf-8"?>
<!-- Generator: Adobe Illustrator 22.1.0, SVG Export Plug-In . SVG Version: 6.00 Build 0)  -->
<svg version="1.1" id="Layer_1" xmlns="http://www.w3.org/2000/svg" xmlns:xlink="http://www.w3.org/1999/xlink" x="0px" y="0px"
	 viewBox="0 0 512 512" style="enable-background:new 0 0 512 512;" xml:space="preserve">
<style type="text/css">
	.st0{fill:#E7E3DC;}
	.st1{fill:none;}
	.st2{fill:#87734F;}
</style>
<g>
	<g>
		<circle class="st0" cx="256" cy="256" r="256"/>
	</g>
</g>
<rect x="160" y="160" class="st1" width="192" height="192"/>
<path class="st2" d="M256,172c-53,0-96,35-96,78c0,18.6,8,35.6,21.4,49c-4.6,18.9-20.3,35.7-20.5,35.9c-0.8,0.8-1,2.2-0.6,3.3
	s1.5,1.8,2.7,1.8c24.8,0,43.5-11.9,52.7-19.3c12.2,4.6,25.9,7.3,40.3,7.3c53,0,96-34.9,96-78S309,172,256,172z"/>
</svg>
