<?xml version="1.0" encoding="utf-8"?>
<!-- Generator: Adobe Illustrator 22.1.0, SVG Export Plug-In . SVG Version: 6.00 Build 0)  -->
<svg version="1.1" id="Layer_1" xmlns="http://www.w3.org/2000/svg" xmlns:xlink="http://www.w3.org/1999/xlink" x="0px" y="0px"
	 viewBox="0 0 512 512" style="enable-background:new 0 0 512 512;" xml:space="preserve">
<style type="text/css">
	.st0{fill:#A39264;}
	.st1{fill:none;}
	.st2{fill:#726646;}
</style>
<g>
	<g>
		<path class="st0" d="M256,4c34,0,67,6.7,98.1,19.8c30,12.7,57,30.9,80.1,54c23.1,23.1,41.3,50.1,54,80.1
			C501.3,189,508,222,508,256s-6.7,67-19.8,98.1c-12.7,30-30.9,57-54,80.1c-23.1,23.1-50.1,41.3-80.1,54C323,501.3,290,508,256,508
			s-67-6.7-98.1-19.8c-30-12.7-57-30.9-80.1-54c-23.1-23.1-41.3-50.1-54-80.1C10.7,323,4,290,4,256s6.7-67,19.8-98.1
			c12.7-30,30.9-57,54-80.1c23.1-23.1,50.1-41.3,80.1-54C189,10.7,222,4,256,4 M256,0C114.6,0,0,114.6,0,256s114.6,256,256,256
			s256-114.6,256-256S397.4,0,256,0L256,0z"/>
	</g>
</g>
<rect x="128" y="128" class="st1" width="256" height="256"/>
<path class="st2" d="M211.2,212c-7.7,2.2-13.7,8-16.3,15.5l-35,104.9l5.5,5.5l56.3-56.3c-1.1-2.3-1.8-5-1.8-7.7c0-10,8-18,18-18
	s18,8,18,18s-8,18-18,18c-2.8,0-5.4-0.7-7.7-1.8l-56.3,56.3l5.5,5.5l104.9-35c7.6-2.6,13.4-8.6,15.5-16.3L316,244l-48-48L211.2,212
	L211.2,212z M346.8,187.8l-22.6-22.6c-7.1-7.1-18.5-7.1-25.5,0l-21.2,21.2l48,48l21.3-21.2C353.7,206.2,353.7,194.8,346.8,187.8z"/>
</svg>
